<svg width="21" height="21" viewBox="0 0 21 21" fill="none" xmlns="http://www.w3.org/2000/svg">
<g clip-path="url(#clip0)">
<path d="M12.8129 10.5011L20.6645 2.6492C20.8805 2.43305 20.9997 2.14468 21 1.8372C21 1.52954 20.8808 1.24083 20.6645 1.02503L19.9765 0.337148C19.7601 0.12049 19.4718 0.00183105 19.164 0.00183105C18.8566 0.00183105 18.5683 0.12049 18.352 0.337148L10.5003 8.18859L2.64839 0.337148C2.43241 0.12049 2.14388 0.00183105 1.83622 0.00183105C1.5289 0.00183105 1.24037 0.12049 1.02439 0.337148L0.336 1.02503C-0.112 1.47303 -0.112 2.20171 0.336 2.6492L8.18778 10.5011L0.336 18.3528C0.119854 18.5692 0.000853659 18.8576 0.000853659 19.1651C0.000853659 19.4726 0.119854 19.761 0.336 19.9773L1.02422 20.6651C1.2402 20.8816 1.5289 21.0005 1.83605 21.0005C2.14371 21.0005 2.43224 20.8816 2.64822 20.6651L10.5002 12.8135L18.3518 20.6651C18.5681 20.8816 18.8565 21.0005 19.1638 21.0005H19.1641C19.4716 21.0005 19.76 20.8816 19.9763 20.6651L20.6643 19.9773C20.8803 19.7611 20.9995 19.4726 20.9995 19.1651C20.9995 18.8576 20.8803 18.5692 20.6643 18.3529L12.8129 10.5011Z" fill="#362707"/>
</g>
<defs>
<clipPath id="clip0">
<rect width="21" height="21" fill="white"/>
</clipPath>
</defs>
</svg>
